<svg version="1.2" xmlns="http://www.w3.org/2000/svg" viewBox="0 0 1168 214" width="1168" height="214">
	<style>
		.s0 { opacity: .99;fill: #5e5d5e } 
		.s1 { opacity: 1;fill: #de036d } 
		.s2 { opacity: .2;fill: #6f4f60 } 
		.s3 { opacity: 1;fill: #f3fafd } 
		.s4 { opacity: .42;fill: #5d5d5e } 
	</style>
	<g id="Background">
		<path id="Path 0" fill-rule="evenodd" class="s0" d="m98 85.63c3.81 0.3 8.67 1.51 11.75 2.94 2.9 1.34 6.6 4.11 8.27 6.18 1.66 2.06 3.86 6 4.88 8.75 1.03 2.75 2.18 7.25 2.58 10 0.39 2.75 0.44 6.46-0.48 11.5l-49.5-0.03 0.64 4.77c0.35 2.62 1.59 6.67 2.75 9.01 1.16 2.34 3.35 5.09 4.86 6.11 1.51 1.02 4.55 2.45 6.75 3.18 2.2 0.72 6.7 1.3 10 1.29 3.3-0.01 8.82-0.88 12.26-1.92 4.2-1.28 6.61-1.58 7.31-0.91 0.58 0.55 1.13 2.78 1.24 4.96 0.16 3.32-0.21 4.17-2.31 5.24-1.37 0.69-6.78 1.76-12 2.35-7.04 0.81-11.18 0.79-16-0.07-3.58-0.64-8.53-2.19-11-3.45-2.47-1.25-6.27-4.25-8.44-6.66-2.17-2.4-4.87-6.4-6-8.87-1.73-3.78-2.06-6.5-2.06-17 0-11.6 0.2-12.93 2.8-18.5 1.54-3.3 4.47-7.73 6.5-9.83 2.04-2.11 5.5-4.78 7.7-5.93 2.2-1.15 5.58-2.44 7.5-2.86 1.92-0.42 6.42-0.53 10-0.25zm-16.16 14.42c-0.95 1.35-2.43 4.14-3.28 6.2-0.86 2.06-1.56 4.88-1.56 6.25 0 2.38 0.3 2.51 6.25 2.68 3.44 0.09 11.58 0.21 18.09 0.25l11.84 0.07c-0.92-5.81-2.08-9.3-3.18-11.5-1.1-2.2-3.46-5-5.25-6.22q-3.25-2.22-8.75-2.52c-3.03-0.16-7.06 0.3-8.96 1.02-1.91 0.73-4.25 2.42-5.2 3.77z"/>
		<path id="Path 1" class="s1" d="m721.5 47.68c-1.1 0.25-5.38 1.54-9.5 2.87-4.13 1.33-10.2 4.16-13.5 6.29-3.3 2.13-8.65 6.3-11.9 9.27-3.24 2.96-7.79 7.86-10.12 10.89-2.32 3.03-5.62 8.2-7.33 11.5-1.71 3.3-3.82 8.7-4.69 12-0.87 3.3-1.85 10.28-2.18 15.5-0.35 5.74-0.09 12.67 0.66 17.5 0.68 4.4 2.4 10.93 3.81 14.5 1.41 3.57 4.25 9.2 6.32 12.5 2.06 3.3 7.28 9.39 11.59 13.53 4.31 4.14 10.32 8.93 13.34 10.64 3.02 1.72 8.65 4.24 12.5 5.61 3.85 1.37 11.05 3.02 16 3.67 6.86 0.9 11.02 0.91 17.5 0.03 4.67-0.64 12.1-2.49 16.5-4.11 4.4-1.62 10.02-4.14 12.5-5.61 2.48-1.47 8.03-6.07 12.35-10.22 4.32-4.14 9.81-10.69 12.21-14.54 2.4-3.85 5.51-10.26 6.9-14.25 1.4-3.99 3.06-10.51 3.69-14.5 0.85-5.29 0.87-9.82 0.11-16.75-0.7-6.23-2.22-12.6-4.43-18.5-1.86-4.95-5.16-11.7-7.35-15-2.18-3.3-7.2-9.15-11.15-13-4.24-4.13-10.58-8.93-15.5-11.72-4.91-2.78-11.61-5.55-16.33-6.76-5.92-1.51-10.86-2.01-19-1.92-6.05 0.07-11.9 0.33-13 0.58z"/>
		<path id="Path 2" class="s2" d="m731 46.73c1.92 0.21 5.3 0.21 7.5 0 2.2-0.22 0.63-0.39-3.5-0.39-4.13 0-5.92 0.17-4 0.39z"/>
		<path id="Path 3" fill-rule="evenodd" class="s0" d="m506.75 72.02c0.69-0.01 1.47 0.99 1.74 2.23 0.26 1.24 0.49 4.61 0.51 12.75l9.03 0.25c6.74 0.19 9.28 0.63 9.99 1.75 0.52 0.83 0.96 2.4 0.98 3.5 0.02 1.1-0.51 2.56-1.18 3.25-0.79 0.81-4.3 1.25-18.82 1.25l0.5 46.17 3.5 3.06c3.31 2.9 3.87 3.05 10.33 2.67 3.76-0.22 6.97-0.18 7.14 0.1 0.16 0.28 0.61 1.85 0.99 3.5 0.5 2.15 0.23 3.5-0.95 4.75-1.31 1.39-3.35 1.75-9.83 1.77-4.5 0.01-9.75-0.51-11.68-1.14-1.93-0.64-4.57-2.11-5.88-3.27-1.31-1.16-3.21-3.91-4.23-6.11-1.63-3.53-1.85-6.8-1.89-51.5h-5.5c-3.72 0-5.51-0.4-5.52-1.25-0.02-0.69 4.37-6.31 9.75-12.48 5.37-6.18 10.33-11.25 11.02-11.25zm-259.75 13.51c3.57 0.27 8.53 1.07 11 1.77 4.04 1.15 4.53 1.6 4.75 4.49 0.14 1.76-0.2 4.11-0.75 5.21-0.97 1.94-1.16 1.95-6.25 0.38-3.28-1.02-7.53-1.49-11.32-1.25-4.58 0.28-6.92 1-9.5 2.94-1.89 1.41-4.55 4.78-5.93 7.5-2.17 4.28-2.5 6.25-2.5 14.93 0 8.68 0.33 10.65 2.5 14.95 1.38 2.72 4.23 6.32 6.34 8 3.44 2.73 4.71 3.09 12 3.43 5.8 0.28 9.54-0.09 17.66-2.88l1 2.5c0.55 1.38 1 3.63 1 5 0 1.92-0.88 2.9-3.75 4.23-2.83 1.3-6.33 1.71-14.25 1.67-8.96-0.05-11.3-0.42-16-2.54-3.03-1.37-7.27-4.26-9.44-6.42-2.16-2.17-5.09-6.41-6.5-9.44-2.34-5.03-2.56-6.61-2.53-18.5 0.02-11.31 0.32-13.62 2.25-17.75 1.22-2.61 3.91-6.6 5.97-8.87 2.06-2.27 5.1-4.82 6.75-5.67 1.65-0.85 4.8-2.14 7-2.87 2.48-0.81 6.47-1.12 10.5-0.81zm133-0.16c3.57 0.24 8.3 1.18 10.5 2.09 2.2 0.9 5.28 2.86 6.84 4.34 1.56 1.49 3.88 4.5 5.15 6.7 1.28 2.2 2.85 6.47 3.5 9.5 0.64 3.03 1.02 7.97 0.51 16.5l-48 0.5 0.78 4.25c0.44 2.34 1.79 6.27 3 8.74 1.34 2.71 3.94 5.69 6.56 7.5 3.77 2.62 5.39 3.06 12.5 3.39 6.08 0.28 9.64-0.1 13.98-1.5 5.12-1.65 5.93-1.7 6.74-0.38 0.5 0.82 0.92 3.19 0.92 5.25 0.02 3.61-0.15 3.8-4.73 5.17-2.61 0.78-7.45 1.69-10.75 2.03-3.84 0.39-8.61 0.06-13.25-0.92-3.99-0.84-8.94-2.39-11-3.45-2.06-1.05-5.42-3.64-7.45-5.75-2.04-2.1-4.71-6.08-5.94-8.83-1.66-3.69-2.36-7.49-2.67-14.5-0.29-6.72 0.06-11.4 1.23-16 0.9-3.58 2.86-8.48 4.36-10.9 1.5-2.42 4.47-5.8 6.6-7.5 2.14-1.71 6.19-3.9 9-4.88 3.62-1.26 7.02-1.66 11.62-1.35zm-17.27 19.63c-1.52 3.03-2.75 6.63-2.75 8l0.02 2.5 35-0.5c0.01-5.04-1-8.5-2.24-10.94-1.24-2.44-3.54-5.37-5.09-6.5q-2.84-2.06-8.5-2.35c-4.44-0.23-6.54 0.2-9.67 2-2.85 1.63-4.79 3.86-6.77 7.79zm252.77-19.33c3.85 0.27 8.8 1.27 11 2.24 2.2 0.97 5.46 3.41 7.25 5.42 2.19 2.47 3.58 5.38 4.27 8.92 0.57 2.95 0.9 15.95 0.48 54.11l-3 0.83c-1.65 0.45-8.4 1.27-15 1.83-10.02 0.83-12.99 0.74-18-0.57-3.3-0.86-7.46-2.67-9.25-4.01-1.79-1.34-3.98-3.9-4.86-5.69-0.89-1.79-1.84-5.28-2.11-7.75-0.27-2.47 0.05-6.53 0.71-9 0.8-2.98 2.61-5.87 5.36-8.55 2.51-2.45 6.32-4.82 9.65-5.98 3.97-1.39 8.25-1.93 25.23-1.97l-0.44-6c-0.24-3.3-1.08-6.99-1.87-8.19-0.78-1.21-2.43-2.9-3.67-3.75-1.24-0.86-4.39-1.85-7-2.2-3.21-0.44-7.28-0.03-12.56 1.25-6.89 1.67-7.93 1.71-8.74 0.39-0.5-0.82-0.82-2.95-0.69-4.72 0.2-2.95 0.65-3.35 5.23-4.7 2.76-0.82 6.36-1.69 8.01-1.93 1.65-0.25 6.15-0.24 10 0.02zm-15.2 45.21c-0.68 0.89-1.27 3.87-1.3 6.62-0.05 3.54 0.53 5.8 1.97 7.75 1.11 1.51 3.72 3.26 5.78 3.89 2.31 0.71 6.53 0.9 11 0.5 3.99-0.35 7.7-0.86 8.25-1.14 0.58-0.29 1-5.17 1-11.5 0-8.89-0.29-11.1-1.5-11.5-0.83-0.28-4.99-0.5-9.25-0.5-6.14 0.01-8.47 0.45-11.23 2.13-1.91 1.17-4.03 2.85-4.72 3.75zm-453.13-44.88c2.86 0 4.21 0.57 5.34 2.25 0.83 1.24 1.5 3.49 1.49 7.75l4.75-4.04c2.61-2.22 6.32-4.53 8.25-5.13 1.92-0.59 6.68-0.91 10.57-0.71 5.64 0.3 7.92 0.94 11.25 3.13 2.34 1.54 5.17 4.62 6.43 7 2.16 4.08 2.26 5.4 2.51 32.25 0.19 21.4-0.04 28.31-1 29.29-0.69 0.72-2.5 1.28-4.01 1.25-1.51-0.02-3.65-0.49-4.75-1.04-1.92-0.96-2-2-2-24.75 0-13.21-0.45-25.3-1.02-27.25-0.56-1.92-2.25-4.75-3.75-6.27-1.5-1.53-4.31-3.05-6.23-3.37-1.93-0.33-5.08-0.13-7 0.45-1.93 0.57-5.19 2.88-7.25 5.12-2.06 2.24-4.2 5.76-4.74 7.82-0.55 2.06-1 13.76-1 26-0.01 18.89-0.24 22.33-1.51 22.75-0.83 0.28-3.19 0.51-5.25 0.52-2.06 0.01-4.32-0.56-5.02-1.25-0.96-0.97-1.3-9.44-1.41-35.85-0.09-19.02 0.22-34.89 0.68-35.25 0.46-0.37 2.56-0.67 4.67-0.67zm137.31 0c4.02 0 5.66 0.41 6.02 1.5 0.27 0.83 0.5 12.07 0.5 25 0 14.26 0.42 24.58 1.07 26.25 0.58 1.51 2.05 3.8 3.25 5.09 1.2 1.28 3.75 2.98 5.68 3.77 1.92 0.79 5.97 1.42 9 1.4 3.02-0.02 7.2-0.6 13.05-2.51l-0.07-29c-0.05-22.49 0.22-29.28 1.23-30.26 0.75-0.73 3.18-1.15 10.29-0.74l0.23 33.5c0.17 25.36-0.07 33.81-1 34.79-0.68 0.71-4.61 2-8.73 2.88-5.19 1.1-10.74 1.45-18 1.16-8.17-0.33-11.39-0.9-14.5-2.54-2.2-1.16-5.44-3.62-7.2-5.45-1.76-1.84-3.99-5.14-4.95-7.34-1.48-3.38-1.81-7.92-2.12-29.27-0.21-13.9-0.13-25.93 0.17-26.75 0.4-1.06 2.11-1.48 6.08-1.48zm140.93 0.2c3.53 0.26 4.13 0.65 4.37 2.8 0.15 1.38 0.51 3.63 1.29 7.5l3.72-3.7c2.04-2.04 5.4-4.4 7.46-5.25 2.06-0.85 6.56-1.54 10-1.53 3.8 0.02 7.82 0.72 10.25 1.81 2.2 0.98 5.18 3.34 6.63 5.23 1.44 1.89 3.24 5.24 4 7.44 1.02 3 1.37 10.6 1.37 30.29 0 22.27-0.23 26.43-1.5 27.23-0.83 0.52-2.96 0.96-4.75 0.96-1.79 0.01-3.93-0.66-4.75-1.48-1.25-1.25-1.5-5.55-1.52-25.75-0.02-22.03-0.2-24.64-2-28.5-1.19-2.56-3.17-4.85-4.98-5.75-1.65-0.82-4.35-1.5-6-1.5-1.65 0-4.46 0.62-6.25 1.37-1.79 0.76-4.24 2.44-5.44 3.75-1.21 1.31-2.9 4.07-3.75 6.13-1.17 2.81-1.75 9.64-3.06 50.84l-2.5 0.58c-1.38 0.32-3.85 0.17-8.5-1.24l-0.43-34.35c-0.35-27.8-0.17-34.61 0.91-35.76 0.85-0.89 2.86-1.31 5.43-1.12zm123.57-0.2c2.21 0 4.36 0.56 4.77 1.25 0.41 0.69 1.22 3.28 2.84 10.25l1.6-3c0.88-1.65 3.33-3.97 5.45-5.16 2.12-1.19 6.11-2.45 8.86-2.81 3.53-0.46 5.38-0.27 6.29 0.66 0.72 0.72 1.28 2.77 1.25 4.56-0.02 1.79-0.27 3.93-0.54 4.75-0.36 1.08-1.95 1.49-5.75 1.47-3.82-0.02-6.21 0.6-8.75 2.26-1.92 1.26-4.52 4.31-5.76 6.78-2.15 4.27-2.25 5.57-2.2 26.99 0.04 17.15-0.26 22.8-1.25 23.76-0.77 0.75-3.29 1.15-11.29 0.74l-0.15-34.99c-0.08-19.25 0.03-35.56 0.23-36.25 0.22-0.74 2.03-1.26 4.4-1.26zm348.02 0.42c5.22 0.2 11.19 0.86 13.25 1.47 3.33 0.99 3.75 1.47 3.77 4.36 0.01 1.79-0.56 4.06-1.25 5.04-1.19 1.69-1.63 1.7-7.27 0.25-3.3-0.85-7.46-1.55-9.25-1.55-1.79 0.01-5.39 0.56-8 1.23-2.96 0.75-6.12 2.54-8.4 4.75-2.54 2.46-4.19 5.35-5.42 9.53-0.97 3.3-1.75 8.7-1.74 12 0.01 3.3 0.51 7.8 1.12 10 0.6 2.2 2.15 5.57 3.43 7.5 1.29 1.93 4.34 4.58 6.8 5.91 2.54 1.37 6.83 2.61 9.96 2.87 3.31 0.28 7.98-0.19 11.75-1.16 3.44-0.89 6.7-1.62 7.25-1.62 0.55 0 1.49 1.91 2.08 4.25 0.95 3.73 0.86 4.4-0.75 5.51-1.01 0.69-4.31 1.75-7.33 2.37-3.03 0.61-9.55 0.91-14.5 0.65-6.28-0.33-10.44-1.12-13.75-2.63-2.61-1.18-6.92-4.29-9.57-6.9-3.27-3.22-5.55-6.68-7.09-10.75-2-5.3-2.22-7.4-1.89-18 0.32-10.22 0.72-12.67 2.73-16.5 1.3-2.47 3.35-5.91 4.56-7.64 1.21-1.73 4.18-4.39 6.61-5.92 2.42-1.53 6.42-3.37 8.9-4.08 2.77-0.79 8.15-1.15 14-0.94zm61.5-0.17c7.25 0.2 9.97 0.74 14 2.74 2.75 1.37 6.36 3.84 8.02 5.5 1.67 1.65 4.25 5.6 5.75 8.76 1.5 3.16 3.25 9.01 3.89 13 0.89 5.52 0.89 8.92 0 14.25-0.64 3.85-2.2 9.25-3.46 12-1.26 2.75-4.3 6.94-6.75 9.31-2.55 2.47-6.69 5.14-9.7 6.25-3.47 1.28-7.8 1.94-12.75 1.94q-7.5 0-12.75-1.96c-2.89-1.08-7.05-3.48-9.25-5.34-2.53-2.13-5.07-5.73-6.9-9.79-1.59-3.52-3.37-9.11-3.95-12.41-0.75-4.31-0.72-8.26 0.1-14 0.7-4.88 2.29-10.34 4.09-14 1.85-3.78 4.55-7.29 7.3-9.48 2.4-1.91 6.38-4.27 8.86-5.25 3.36-1.32 6.78-1.71 13.5-1.52zm-11 12.41c-1.1 0.58-3.05 2.36-4.34 3.95-1.29 1.59-3.02 4.47-3.84 6.39-0.83 1.93-1.75 7.1-2.05 11.5-0.39 5.78-0.08 9.6 1.1 13.75 0.95 3.35 2.98 7.27 4.88 9.41 1.79 2.01 4.71 4.26 6.5 5 1.79 0.74 5.27 1.34 7.75 1.34 2.47 0 5.96-0.6 7.75-1.33 1.79-0.74 4.54-2.87 6.11-4.75 1.58-1.88 3.55-4.99 4.39-6.92 1.01-2.33 1.55-6.86 1.59-13.5 0.05-8.85-0.25-10.66-2.64-15.75-1.86-3.97-3.86-6.49-6.45-8.14-2.06-1.31-5.33-2.58-7.25-2.82-1.92-0.24-5.3-0.15-7.5 0.19-2.2 0.35-4.9 1.1-6 1.68zm65.17-12.66c1.83 0 4 0.68 4.83 1.5 0.83 0.83 1.5 2.85 1.5 4.5 0 1.65 0.45 3.23 1 3.5 0.55 0.28 1.59-0.51 2.32-1.75 0.72-1.24 3.76-3.49 6.75-5.01 4.01-2.04 6.87-2.76 10.93-2.74 3.59 0.01 7.24 0.82 10.5 2.32 2.89 1.33 6.03 3.76 7.43 5.74 1.33 1.89 2.57 3.55 2.75 3.69 0.17 0.14 1.78-1.4 3.57-3.41 1.79-2.02 5.5-4.71 8.25-5.99 3.43-1.6 6.89-2.34 11-2.37 4.68-0.03 7.21 0.58 11.5 2.79 4.68 2.42 5.95 3.71 11.5 14.58l0.36 26.58c0.29 21.48 0.1 26.81-1 27.83-0.81 0.75-3.38 1.15-11.36 0.74l-0.5-26c-0.47-24.39-0.63-26.22-2.65-29.5-1.19-1.92-3.33-4.06-4.75-4.75-1.43-0.69-4.51-1.26-6.85-1.28-2.79-0.02-5.44 0.76-7.69 2.25-1.9 1.25-4.37 3.86-5.5 5.78-1.89 3.2-2.1 5.59-2.56 28.17-0.28 13.57-0.88 25.04-1.34 25.5-0.46 0.46-2.8 0.83-5.2 0.83-2.4 0-4.94-0.59-5.66-1.3-0.97-0.98-1.37-7.12-1.59-24.5-0.17-12.76-0.73-25-1.27-27.2-0.53-2.2-2.12-5.12-3.53-6.5-2.15-2.09-3.53-2.5-8.42-2.5-4.31 0-6.58 0.54-8.67 2.05-1.55 1.13-3.95 4.28-5.32 7-2.43 4.82-2.51 5.6-3 52.45l-3.75 0.61c-2.06 0.33-4.76 0.11-8.25-1.61l-0.17-35.33c-0.09-19.44 0.21-35.64 0.67-36 0.46-0.37 2.33-0.67 4.17-0.67zm-179 57c4.74 0 6.46 0.38 6.83 1.5 0.27 0.82 0.5 3.75 0.5 6.5 0 2.75-0.23 5.68-0.5 6.5-0.38 1.14-2.17 1.5-14.5 1.5l-0.17-7.33c-0.09-4.04 0.21-7.64 0.67-8 0.46-0.37 3.68-0.67 7.17-0.67z"/>
		<path id="Path 4" class="s3" d="m689.5 87.74c-3.42 1.21-5.1 2.39-5.34 3.76-0.19 1.1-0.07 3.35 0.26 5 0.34 1.65 0.94 3.57 1.34 4.27 0.59 1 1.51 0.95 4.49-0.25 2.06-0.84 6.45-1.52 9.75-1.52 5.07 0 6.39 0.39 8.5 2.5 1.37 1.38 2.78 3.74 3.12 5.25 0.34 1.51 0.34 4.21 0 6-0.34 1.79-3.34 7.19-6.66 12-3.33 4.81-9.64 13.7-14.03 19.75-4.39 6.05-7.97 11.79-7.96 12.75 0.03 1.61 1.78 1.75 22.53 1.75h22.5c0.9-4.26 0.9-6.96 0.58-8.75l-0.58-3.25c-16.83 0-21-0.4-21-1 0-0.55 1.91-3.59 4.24-6.75 2.33-3.16 5.33-7.32 6.65-9.25 1.33-1.93 3.69-6.2 5.26-9.5 2.22-4.67 2.85-7.44 2.86-12.5 0-4.77-0.59-7.69-2.25-10.99-1.34-2.65-4.03-5.71-6.6-7.5-3.96-2.74-5.16-3.03-13.5-3.27-6.74-0.2-10.48 0.2-14.16 1.5zm60.14 25.84c-7.28 15.18-13.33 28.45-13.44 29.5-0.19 1.82 0.65 1.92 16.8 1.92h17v15h13v-15l7.5-0.5 0.5-11.5h-8c-0.07-12.7-0.52-15.77-1.29-16.23-0.67-0.41-2.9-0.75-4.96-0.75-2.06-0.01-4.42 0.21-5.25 0.48-1.17 0.39-1.5 2.28-1.5 8.5v8c-11 0-14-0.43-14-1 0-0.55 2.88-6.96 6.41-14.25 3.52-7.29 8.02-16.74 10-21l3.59-7.75c-6.2-2.32-9.15-3-10.55-3-2.36 0-3.58 2.13-15.81 27.58z"/>
		<path id="Path 5" class="s4" d="m322.44 118.5c0 15.95 0.14 22.25 0.31 14 0.17-8.25 0.17-21.3 0-29-0.17-7.7-0.31-0.95-0.31 15zm195.56-21.5l-9.5 0.62c15.71 0.31 19.5-0.01 19.5-0.62 0-0.55-0.11-0.91-0.25-0.81-0.14 0.11-4.52 0.47-9.75 0.81zm-24.75 0.65l2.75 0.35 0.55 37.5 0.45-38.5c-6.19 0.29-6.23 0.33-3.75 0.65zm146.17 36.85c0 10.45 0.15 14.5 0.33 9 0.18-5.5 0.18-14.05-0.01-19-0.18-4.95-0.32-0.45-0.32 10zm-208.02 5.5c0 7.97 0.15 11.35 0.34 7.5 0.19-3.85 0.19-10.38 0-14.5-0.19-4.13-0.34-0.97-0.34 7z"/>
		<path id="Path 6" class="s2" d="m1007.22 121.75c0.12 19.66 0.34 30.13 0.49 23.25 0.16-6.88 0.4-22.96 0.54-35.75 0.14-12.79-0.09-23.25-0.5-23.25-0.41 0-0.65 16.09-0.53 35.75zm-931.1-8c-0.12 2.18 0.15 2.24 8.13 2.05l8.25-0.2c-14.17-0.55-15.57-0.9-15.88-2.35-0.28-1.24-0.42-1.09-0.5 0.5zm137.22 8.25c0 4.13 0.17 5.92 0.39 4 0.21-1.92 0.21-5.3 0-7.5-0.22-2.2-0.39-0.62-0.39 3.5zm646.01 1c0 4.67 0.17 6.47 0.38 4 0.21-2.47 0.21-6.3 0-8.5-0.21-2.2-0.38-0.17-0.38 4.5zm-34.02 28.5c0 3.85 0.18 5.2 0.4 3 0.21-2.2 0.21-5.35-0.01-7-0.22-1.65-0.4 0.15-0.39 4zm-430.33-37.5c0 0.62-6.6 1.11-17.25 1.28l-17.25 0.27c32.96 0.42 35.5 0.24 35.5-1.05 0-0.83-0.23-1.5-0.5-1.5-0.27 0-0.5 0.45-0.5 1z"/>
	</g>
</svg>